<mxfile host="Electron" modified="2024-03-30T16:00:06.694Z" agent="Mozilla/5.0 (Windows NT 10.0; Win64; x64) AppleWebKit/537.36 (KHTML, like Gecko) draw.io/24.1.0 Chrome/120.0.6099.109 Electron/28.1.0 Safari/537.36" etag="FiWL9_Lxv9anfBoz7SSE" version="24.1.0" type="device">
  <diagram name="Сторінка-1" id="xNuX0fLDY9kkAoU1iqvL">
    <mxGraphModel dx="1100" dy="942" grid="1" gridSize="10" guides="1" tooltips="1" connect="1" arrows="1" fold="1" page="1" pageScale="1" pageWidth="827" pageHeight="1169" math="0" shadow="0">
      <root>
        <mxCell id="0" />
        <mxCell id="1" parent="0" />
        <mxCell id="bRwk9zDZZ50Ta1q1J5nH-25" value="&lt;font style=&quot;font-size: 20px;&quot;&gt;Feed Cache&lt;/font&gt;" style="rounded=0;whiteSpace=wrap;html=1;fillColor=#76608a;fontColor=#ffffff;strokeColor=#432D57;" vertex="1" parent="1">
          <mxGeometry x="370" y="580" width="120" height="60" as="geometry" />
        </mxCell>
        <mxCell id="bRwk9zDZZ50Ta1q1J5nH-24" value="&lt;font style=&quot;font-size: 20px;&quot;&gt;Feed Cache&lt;/font&gt;" style="rounded=0;whiteSpace=wrap;html=1;fillColor=#76608a;fontColor=#ffffff;strokeColor=#432D57;" vertex="1" parent="1">
          <mxGeometry x="360" y="570" width="120" height="60" as="geometry" />
        </mxCell>
        <mxCell id="bRwk9zDZZ50Ta1q1J5nH-21" value="&lt;font style=&quot;font-size: 20px;&quot;&gt;Reaction Service&lt;/font&gt;" style="rounded=0;whiteSpace=wrap;html=1;fillColor=#e3c800;fontColor=#000000;strokeColor=#B09500;" vertex="1" parent="1">
          <mxGeometry x="70" y="480" width="120" height="60" as="geometry" />
        </mxCell>
        <mxCell id="bRwk9zDZZ50Ta1q1J5nH-20" value="&lt;font style=&quot;font-size: 20px;&quot;&gt;Reaction Service&lt;/font&gt;" style="rounded=0;whiteSpace=wrap;html=1;fillColor=#e3c800;fontColor=#000000;strokeColor=#B09500;" vertex="1" parent="1">
          <mxGeometry x="60" y="470" width="120" height="60" as="geometry" />
        </mxCell>
        <mxCell id="bRwk9zDZZ50Ta1q1J5nH-19" value="&lt;font style=&quot;font-size: 20px;&quot;&gt;Post Service&lt;/font&gt;" style="rounded=0;whiteSpace=wrap;html=1;fillColor=#e3c800;fontColor=#000000;strokeColor=#B09500;" vertex="1" parent="1">
          <mxGeometry x="270" y="480" width="120" height="60" as="geometry" />
        </mxCell>
        <mxCell id="bRwk9zDZZ50Ta1q1J5nH-18" value="&lt;font style=&quot;font-size: 20px;&quot;&gt;Post Service&lt;/font&gt;" style="rounded=0;whiteSpace=wrap;html=1;fillColor=#e3c800;fontColor=#000000;strokeColor=#B09500;" vertex="1" parent="1">
          <mxGeometry x="260" y="470" width="120" height="60" as="geometry" />
        </mxCell>
        <mxCell id="bRwk9zDZZ50Ta1q1J5nH-17" value="&lt;font style=&quot;font-size: 20px;&quot;&gt;Feed Service&lt;/font&gt;" style="rounded=0;whiteSpace=wrap;html=1;fillColor=#e3c800;fontColor=#000000;strokeColor=#B09500;" vertex="1" parent="1">
          <mxGeometry x="480" y="480" width="120" height="60" as="geometry" />
        </mxCell>
        <mxCell id="bRwk9zDZZ50Ta1q1J5nH-16" value="&lt;font style=&quot;font-size: 20px;&quot;&gt;Feed Service&lt;/font&gt;" style="rounded=0;whiteSpace=wrap;html=1;fillColor=#e3c800;fontColor=#000000;strokeColor=#B09500;" vertex="1" parent="1">
          <mxGeometry x="470" y="470" width="120" height="60" as="geometry" />
        </mxCell>
        <mxCell id="bRwk9zDZZ50Ta1q1J5nH-15" value="&lt;font style=&quot;font-size: 20px;&quot;&gt;Read API&lt;/font&gt;" style="rounded=0;whiteSpace=wrap;html=1;fillColor=#e3c800;fontColor=#000000;strokeColor=#B09500;" vertex="1" parent="1">
          <mxGeometry x="480" y="380" width="120" height="60" as="geometry" />
        </mxCell>
        <mxCell id="bRwk9zDZZ50Ta1q1J5nH-14" value="&lt;font style=&quot;font-size: 20px;&quot;&gt;Read API&lt;/font&gt;" style="rounded=0;whiteSpace=wrap;html=1;fillColor=#e3c800;fontColor=#000000;strokeColor=#B09500;" vertex="1" parent="1">
          <mxGeometry x="470" y="370" width="120" height="60" as="geometry" />
        </mxCell>
        <mxCell id="bRwk9zDZZ50Ta1q1J5nH-13" value="&lt;font style=&quot;font-size: 20px;&quot;&gt;Write API&lt;/font&gt;" style="rounded=0;whiteSpace=wrap;html=1;fillColor=#e3c800;fontColor=#000000;strokeColor=#B09500;" vertex="1" parent="1">
          <mxGeometry x="170" y="380" width="120" height="60" as="geometry" />
        </mxCell>
        <mxCell id="bRwk9zDZZ50Ta1q1J5nH-12" value="&lt;font style=&quot;font-size: 20px;&quot;&gt;Write API&lt;/font&gt;" style="rounded=0;whiteSpace=wrap;html=1;fillColor=#e3c800;fontColor=#000000;strokeColor=#B09500;" vertex="1" parent="1">
          <mxGeometry x="160" y="370" width="120" height="60" as="geometry" />
        </mxCell>
        <mxCell id="bRwk9zDZZ50Ta1q1J5nH-11" value="&lt;font style=&quot;font-size: 20px;&quot;&gt;Web Server&lt;/font&gt;" style="rounded=0;whiteSpace=wrap;html=1;fillColor=#f0a30a;fontColor=#000000;strokeColor=#BD7000;" vertex="1" parent="1">
          <mxGeometry x="360" y="280" width="120" height="60" as="geometry" />
        </mxCell>
        <mxCell id="bRwk9zDZZ50Ta1q1J5nH-10" value="&lt;font style=&quot;font-size: 20px;&quot;&gt;Web Server&lt;/font&gt;" style="rounded=0;whiteSpace=wrap;html=1;fillColor=#f0a30a;fontColor=#000000;strokeColor=#BD7000;" vertex="1" parent="1">
          <mxGeometry x="350" y="270" width="120" height="60" as="geometry" />
        </mxCell>
        <mxCell id="bRwk9zDZZ50Ta1q1J5nH-6" value="&lt;font style=&quot;font-size: 20px;&quot;&gt;Load Balancer&lt;/font&gt;" style="rounded=0;whiteSpace=wrap;html=1;fillColor=#f8cecc;strokeColor=#b85450;" vertex="1" parent="1">
          <mxGeometry x="360" y="180" width="120" height="60" as="geometry" />
        </mxCell>
        <mxCell id="yM8Tq4fXj_fgESCg39oE-15" style="edgeStyle=orthogonalEdgeStyle;rounded=0;orthogonalLoop=1;jettySize=auto;html=1;exitX=0.5;exitY=1;exitDx=0;exitDy=0;entryX=0.5;entryY=0;entryDx=0;entryDy=0;" parent="1" source="yM8Tq4fXj_fgESCg39oE-1" target="bRwk9zDZZ50Ta1q1J5nH-3" edge="1">
          <mxGeometry relative="1" as="geometry" />
        </mxCell>
        <mxCell id="bRwk9zDZZ50Ta1q1J5nH-7" style="edgeStyle=orthogonalEdgeStyle;rounded=0;orthogonalLoop=1;jettySize=auto;html=1;exitX=1;exitY=0.5;exitDx=0;exitDy=0;entryX=0;entryY=0.5;entryDx=0;entryDy=0;curved=1;" edge="1" parent="1" source="yM8Tq4fXj_fgESCg39oE-1" target="bRwk9zDZZ50Ta1q1J5nH-1">
          <mxGeometry relative="1" as="geometry" />
        </mxCell>
        <mxCell id="bRwk9zDZZ50Ta1q1J5nH-8" style="edgeStyle=orthogonalEdgeStyle;rounded=0;orthogonalLoop=1;jettySize=auto;html=1;exitX=1;exitY=0.75;exitDx=0;exitDy=0;entryX=0;entryY=0.5;entryDx=0;entryDy=0;curved=1;" edge="1" parent="1" source="yM8Tq4fXj_fgESCg39oE-1" target="bRwk9zDZZ50Ta1q1J5nH-2">
          <mxGeometry relative="1" as="geometry" />
        </mxCell>
        <mxCell id="yM8Tq4fXj_fgESCg39oE-1" value="&lt;font style=&quot;font-size: 20px;&quot;&gt;Client&lt;/font&gt;" style="rounded=0;whiteSpace=wrap;html=1;fillColor=#008a00;fontColor=#ffffff;strokeColor=#005700;" parent="1" vertex="1">
          <mxGeometry x="340" y="60" width="120" height="60" as="geometry" />
        </mxCell>
        <mxCell id="yM8Tq4fXj_fgESCg39oE-16" style="edgeStyle=orthogonalEdgeStyle;rounded=0;orthogonalLoop=1;jettySize=auto;html=1;exitX=1;exitY=0.5;exitDx=0;exitDy=0;entryX=0.5;entryY=0;entryDx=0;entryDy=0;curved=1;" parent="1" source="yM8Tq4fXj_fgESCg39oE-2" target="yM8Tq4fXj_fgESCg39oE-3" edge="1">
          <mxGeometry relative="1" as="geometry" />
        </mxCell>
        <mxCell id="yM8Tq4fXj_fgESCg39oE-17" style="edgeStyle=orthogonalEdgeStyle;rounded=0;orthogonalLoop=1;jettySize=auto;html=1;exitX=0;exitY=0.5;exitDx=0;exitDy=0;entryX=0.5;entryY=0;entryDx=0;entryDy=0;curved=1;" parent="1" source="yM8Tq4fXj_fgESCg39oE-2" target="yM8Tq4fXj_fgESCg39oE-4" edge="1">
          <mxGeometry relative="1" as="geometry" />
        </mxCell>
        <mxCell id="yM8Tq4fXj_fgESCg39oE-2" value="&lt;font style=&quot;font-size: 20px;&quot;&gt;Web Server&lt;/font&gt;" style="rounded=0;whiteSpace=wrap;html=1;fillColor=#f0a30a;fontColor=#000000;strokeColor=#BD7000;" parent="1" vertex="1">
          <mxGeometry x="340" y="260" width="120" height="60" as="geometry" />
        </mxCell>
        <mxCell id="yM8Tq4fXj_fgESCg39oE-29" style="edgeStyle=orthogonalEdgeStyle;rounded=0;orthogonalLoop=1;jettySize=auto;html=1;exitX=0.5;exitY=1;exitDx=0;exitDy=0;entryX=0.5;entryY=0;entryDx=0;entryDy=0;" parent="1" source="yM8Tq4fXj_fgESCg39oE-3" target="yM8Tq4fXj_fgESCg39oE-8" edge="1">
          <mxGeometry relative="1" as="geometry" />
        </mxCell>
        <mxCell id="yM8Tq4fXj_fgESCg39oE-3" value="&lt;font style=&quot;font-size: 20px;&quot;&gt;Read API&lt;/font&gt;" style="rounded=0;whiteSpace=wrap;html=1;fillColor=#e3c800;fontColor=#000000;strokeColor=#B09500;" parent="1" vertex="1">
          <mxGeometry x="460" y="360" width="120" height="60" as="geometry" />
        </mxCell>
        <mxCell id="yM8Tq4fXj_fgESCg39oE-18" style="edgeStyle=orthogonalEdgeStyle;rounded=0;orthogonalLoop=1;jettySize=auto;html=1;exitX=0.75;exitY=1;exitDx=0;exitDy=0;entryX=0.5;entryY=0;entryDx=0;entryDy=0;curved=1;" parent="1" source="yM8Tq4fXj_fgESCg39oE-4" target="yM8Tq4fXj_fgESCg39oE-6" edge="1">
          <mxGeometry relative="1" as="geometry" />
        </mxCell>
        <mxCell id="yM8Tq4fXj_fgESCg39oE-36" style="edgeStyle=orthogonalEdgeStyle;rounded=0;orthogonalLoop=1;jettySize=auto;html=1;exitX=0.25;exitY=1;exitDx=0;exitDy=0;entryX=0.5;entryY=0;entryDx=0;entryDy=0;curved=1;" parent="1" source="yM8Tq4fXj_fgESCg39oE-4" target="yM8Tq4fXj_fgESCg39oE-34" edge="1">
          <mxGeometry relative="1" as="geometry" />
        </mxCell>
        <mxCell id="yM8Tq4fXj_fgESCg39oE-4" value="&lt;font style=&quot;font-size: 20px;&quot;&gt;Write API&lt;/font&gt;" style="rounded=0;whiteSpace=wrap;html=1;fillColor=#e3c800;fontColor=#000000;strokeColor=#B09500;" parent="1" vertex="1">
          <mxGeometry x="150" y="360" width="120" height="60" as="geometry" />
        </mxCell>
        <mxCell id="yM8Tq4fXj_fgESCg39oE-6" value="&lt;font style=&quot;font-size: 20px;&quot;&gt;Post Service&lt;/font&gt;" style="rounded=0;whiteSpace=wrap;html=1;fillColor=#e3c800;fontColor=#000000;strokeColor=#B09500;" parent="1" vertex="1">
          <mxGeometry x="250" y="460" width="120" height="60" as="geometry" />
        </mxCell>
        <mxCell id="yM8Tq4fXj_fgESCg39oE-28" style="edgeStyle=orthogonalEdgeStyle;rounded=0;orthogonalLoop=1;jettySize=auto;html=1;exitX=0.25;exitY=1;exitDx=0;exitDy=0;entryX=0.75;entryY=0;entryDx=0;entryDy=0;curved=1;" parent="1" source="yM8Tq4fXj_fgESCg39oE-8" target="yM8Tq4fXj_fgESCg39oE-12" edge="1">
          <mxGeometry relative="1" as="geometry" />
        </mxCell>
        <mxCell id="yM8Tq4fXj_fgESCg39oE-8" value="&lt;font style=&quot;font-size: 20px;&quot;&gt;Feed Service&lt;/font&gt;" style="rounded=0;whiteSpace=wrap;html=1;fillColor=#e3c800;fontColor=#000000;strokeColor=#B09500;" parent="1" vertex="1">
          <mxGeometry x="460" y="460" width="120" height="60" as="geometry" />
        </mxCell>
        <mxCell id="yM8Tq4fXj_fgESCg39oE-9" value="&lt;font style=&quot;font-size: 15px;&quot;&gt;SQL&lt;/font&gt;&lt;div style=&quot;font-size: 15px;&quot;&gt;&lt;font style=&quot;font-size: 15px;&quot;&gt;Write master-slave&amp;nbsp;&lt;/font&gt;&lt;/div&gt;" style="shape=cylinder3;whiteSpace=wrap;html=1;boundedLbl=1;backgroundOutline=1;size=15;" parent="1" vertex="1">
          <mxGeometry x="163" y="670" width="100" height="100" as="geometry" />
        </mxCell>
        <mxCell id="yM8Tq4fXj_fgESCg39oE-10" value="&lt;font style=&quot;font-size: 20px;&quot;&gt;Object Store&lt;/font&gt;" style="shape=cylinder3;whiteSpace=wrap;html=1;boundedLbl=1;backgroundOutline=1;size=15;" parent="1" vertex="1">
          <mxGeometry x="563" y="670" width="100" height="100" as="geometry" />
        </mxCell>
        <mxCell id="yM8Tq4fXj_fgESCg39oE-12" value="&lt;font style=&quot;font-size: 20px;&quot;&gt;Feed Cache&lt;/font&gt;" style="rounded=0;whiteSpace=wrap;html=1;fillColor=#76608a;fontColor=#ffffff;strokeColor=#432D57;" parent="1" vertex="1">
          <mxGeometry x="350" y="560" width="120" height="60" as="geometry" />
        </mxCell>
        <mxCell id="yM8Tq4fXj_fgESCg39oE-26" value="" style="endArrow=classic;html=1;rounded=0;exitX=0.75;exitY=1;exitDx=0;exitDy=0;entryX=0.5;entryY=0;entryDx=0;entryDy=0;edgeStyle=orthogonalEdgeStyle;curved=1;" parent="1" source="yM8Tq4fXj_fgESCg39oE-6" target="yM8Tq4fXj_fgESCg39oE-12" edge="1">
          <mxGeometry width="50" height="50" relative="1" as="geometry">
            <mxPoint x="620" y="480" as="sourcePoint" />
            <mxPoint x="670" y="430" as="targetPoint" />
          </mxGeometry>
        </mxCell>
        <mxCell id="yM8Tq4fXj_fgESCg39oE-34" value="&lt;font style=&quot;font-size: 20px;&quot;&gt;Reaction Service&lt;/font&gt;" style="rounded=0;whiteSpace=wrap;html=1;fillColor=#e3c800;fontColor=#000000;strokeColor=#B09500;" parent="1" vertex="1">
          <mxGeometry x="50" y="460" width="120" height="60" as="geometry" />
        </mxCell>
        <mxCell id="yM8Tq4fXj_fgESCg39oE-37" style="edgeStyle=orthogonalEdgeStyle;rounded=0;orthogonalLoop=1;jettySize=auto;html=1;exitX=0.25;exitY=1;exitDx=0;exitDy=0;entryX=0;entryY=0.5;entryDx=0;entryDy=0;entryPerimeter=0;curved=1;" parent="1" source="yM8Tq4fXj_fgESCg39oE-34" target="yM8Tq4fXj_fgESCg39oE-9" edge="1">
          <mxGeometry relative="1" as="geometry" />
        </mxCell>
        <mxCell id="yM8Tq4fXj_fgESCg39oE-41" style="edgeStyle=orthogonalEdgeStyle;rounded=0;orthogonalLoop=1;jettySize=auto;html=1;exitX=0.75;exitY=1;exitDx=0;exitDy=0;entryX=1;entryY=0.5;entryDx=0;entryDy=0;entryPerimeter=0;curved=1;" parent="1" source="yM8Tq4fXj_fgESCg39oE-8" target="bRwk9zDZZ50Ta1q1J5nH-26" edge="1">
          <mxGeometry relative="1" as="geometry" />
        </mxCell>
        <mxCell id="bRwk9zDZZ50Ta1q1J5nH-1" value="&lt;font style=&quot;font-size: 20px;&quot;&gt;DNS&lt;/font&gt;" style="rounded=0;whiteSpace=wrap;html=1;fillColor=#dae8fc;strokeColor=#6c8ebf;" vertex="1" parent="1">
          <mxGeometry x="590" y="60" width="120" height="60" as="geometry" />
        </mxCell>
        <mxCell id="bRwk9zDZZ50Ta1q1J5nH-2" value="&lt;font style=&quot;font-size: 20px;&quot;&gt;CDN&lt;/font&gt;" style="rounded=0;whiteSpace=wrap;html=1;fillColor=#e1d5e7;strokeColor=#9673a6;" vertex="1" parent="1">
          <mxGeometry x="590" y="170" width="120" height="60" as="geometry" />
        </mxCell>
        <mxCell id="bRwk9zDZZ50Ta1q1J5nH-4" style="edgeStyle=orthogonalEdgeStyle;rounded=0;orthogonalLoop=1;jettySize=auto;html=1;exitX=0.5;exitY=1;exitDx=0;exitDy=0;entryX=0.5;entryY=0;entryDx=0;entryDy=0;" edge="1" parent="1" source="bRwk9zDZZ50Ta1q1J5nH-3" target="yM8Tq4fXj_fgESCg39oE-2">
          <mxGeometry relative="1" as="geometry" />
        </mxCell>
        <mxCell id="bRwk9zDZZ50Ta1q1J5nH-5" value="&lt;font style=&quot;font-size: 20px;&quot;&gt;Load Balancer&lt;/font&gt;" style="rounded=0;whiteSpace=wrap;html=1;fillColor=#f8cecc;strokeColor=#b85450;" vertex="1" parent="1">
          <mxGeometry x="350" y="170" width="120" height="60" as="geometry" />
        </mxCell>
        <mxCell id="bRwk9zDZZ50Ta1q1J5nH-3" value="&lt;font style=&quot;font-size: 20px;&quot;&gt;Load Balancer&lt;/font&gt;" style="rounded=0;whiteSpace=wrap;html=1;fillColor=#f8cecc;strokeColor=#b85450;" vertex="1" parent="1">
          <mxGeometry x="340" y="160" width="120" height="60" as="geometry" />
        </mxCell>
        <mxCell id="bRwk9zDZZ50Ta1q1J5nH-9" style="edgeStyle=orthogonalEdgeStyle;rounded=0;orthogonalLoop=1;jettySize=auto;html=1;exitX=1;exitY=0.5;exitDx=0;exitDy=0;entryX=1;entryY=0.5;entryDx=0;entryDy=0;entryPerimeter=0;curved=1;" edge="1" parent="1" source="bRwk9zDZZ50Ta1q1J5nH-2" target="yM8Tq4fXj_fgESCg39oE-10">
          <mxGeometry relative="1" as="geometry" />
        </mxCell>
        <mxCell id="bRwk9zDZZ50Ta1q1J5nH-26" value="&lt;span style=&quot;font-size: 20px;&quot;&gt;Read replicas&lt;/span&gt;" style="shape=cylinder3;whiteSpace=wrap;html=1;boundedLbl=1;backgroundOutline=1;size=15;" vertex="1" parent="1">
          <mxGeometry x="367" y="670" width="100" height="100" as="geometry" />
        </mxCell>
        <mxCell id="bRwk9zDZZ50Ta1q1J5nH-29" value="" style="endArrow=none;dashed=1;html=1;rounded=0;entryX=0;entryY=0;entryDx=0;entryDy=67.5;entryPerimeter=0;exitX=1;exitY=0;exitDx=0;exitDy=67.5;exitPerimeter=0;" edge="1" parent="1" source="yM8Tq4fXj_fgESCg39oE-9" target="bRwk9zDZZ50Ta1q1J5nH-26">
          <mxGeometry width="50" height="50" relative="1" as="geometry">
            <mxPoint x="393" y="420" as="sourcePoint" />
            <mxPoint x="443" y="370" as="targetPoint" />
          </mxGeometry>
        </mxCell>
        <mxCell id="bRwk9zDZZ50Ta1q1J5nH-33" style="edgeStyle=orthogonalEdgeStyle;rounded=0;orthogonalLoop=1;jettySize=auto;html=1;exitX=0.25;exitY=1;exitDx=0;exitDy=0;entryX=0.5;entryY=0;entryDx=0;entryDy=0;entryPerimeter=0;curved=1;" edge="1" parent="1" source="yM8Tq4fXj_fgESCg39oE-6" target="yM8Tq4fXj_fgESCg39oE-9">
          <mxGeometry relative="1" as="geometry" />
        </mxCell>
        <mxCell id="bRwk9zDZZ50Ta1q1J5nH-34" style="edgeStyle=orthogonalEdgeStyle;rounded=0;orthogonalLoop=1;jettySize=auto;html=1;exitX=0.5;exitY=1;exitDx=0;exitDy=0;entryX=0;entryY=0.5;entryDx=0;entryDy=0;entryPerimeter=0;curved=1;" edge="1" parent="1" source="yM8Tq4fXj_fgESCg39oE-6" target="yM8Tq4fXj_fgESCg39oE-10">
          <mxGeometry relative="1" as="geometry">
            <Array as="points">
              <mxPoint x="300" y="520" />
              <mxPoint x="300" y="660" />
              <mxPoint x="510" y="660" />
              <mxPoint x="510" y="720" />
            </Array>
          </mxGeometry>
        </mxCell>
      </root>
    </mxGraphModel>
  </diagram>
</mxfile>
